tka_passive_flex_60_states
version=1
nRows=13
nColumns=27
inDegrees=yes

# SIMM Motion File Header:
name tka_passive_flex_60_states
datacolumns 27
datarows 13
otherdata 1
range 1.36943346 1.41061635
endheader
time	ground_r1	ground_r2	ground_r3	ground_tx	ground_ty	ground_tz	knee_flex_r	knee_add_r	knee_rot_r	knee_tx_r	knee_ty_r	knee_tz_r	knee_angle_r_beta	ground_r1_u	ground_r2_u	ground_r3_u	ground_tx_u	ground_ty_u	ground_tz_u	knee_flex_r_u	knee_add_r_u	knee_rot_r_u	knee_tx_r_u	knee_ty_r_u	knee_tz_r_u	knee_angle_r_beta_u
      1.36943346	      0.00000000	     -0.00000000	      0.00000000	     -0.00000000	      0.96900000	     -0.00000000	     37.30692054	     -0.44289889	      0.92198562	      0.00126246	      0.01290887	     -0.00700044	     37.30692054	     -0.00000000	     -0.00000000	      0.00000000	      0.00000000	      0.00000000	     -0.00000000	     65.61039973	     -0.84027749	      5.20103354	      0.01390187	      0.00599752	     -0.00613029	     65.61039973
      1.37306243	      0.00000000	     -0.00000000	      0.00000000	     -0.00000000	      0.96900000	     -0.00000000	     37.54493502	     -0.44607595	      0.94092938	      0.00131280	      0.01293060	     -0.00702262	     37.54493502	     -0.00000000	     -0.00000000	      0.00000000	      0.00000000	      0.00000000	     -0.00000000	     65.55944880	     -0.91682234	      5.24074880	      0.01385603	      0.00596075	     -0.00611201	     65.55944880
      1.37669141	      0.00000000	     -0.00000000	      0.00000000	     -0.00000000	      0.96900000	     -0.00000000	     37.78271394	     -0.44956988	      0.96000053	      0.00136321	      0.01295214	     -0.00704483	     37.78271394	     -0.00000000	     -0.00000000	      0.00000000	      0.00000000	      0.00000000	     -0.00000000	     65.48057944	     -1.00241801	      5.26732085	      0.01393884	      0.00590013	     -0.00609452	     65.48057944
      1.38032038	      0.00000000	     -0.00000000	      0.00000000	     -0.00000000	      0.96900000	     -0.00000000	     38.02015600	     -0.45336088	      0.97930422	      0.00141392	      0.01297344	     -0.00706683	     38.02015600	     -0.00000000	     -0.00000000	     -0.00000000	      0.00000000	     -0.00000000	     -0.00000000	     65.37379164	     -1.07658027	      5.39724684	      0.01400044	      0.00585984	     -0.00597906	     65.37379164
      1.38394936	      0.00000000	     -0.00000000	      0.00000000	     -0.00000000	      0.96900000	     -0.00000000	     38.25715986	     -0.45738583	      0.99923666	      0.00146479	      0.01299478	     -0.00708819	     38.25715986	     -0.00000000	     -0.00000000	     -0.00000000	      0.00000000	     -0.00000000	     -0.00000000	     65.23908539	     -1.15652784	      5.57688637	      0.01405120	      0.00588936	     -0.00584702	     65.23908539
      1.38757833	      0.00000000	     -0.00000000	      0.00000000	     -0.00000000	      0.96900000	     -0.00000000	     38.49362422	     -0.46184594	      1.01968491	      0.00151586	      0.01301596	     -0.00710956	     38.49362422	     -0.00000000	     -0.00000000	     -0.00000000	      0.00000000	     -0.00000000	     -0.00000000	     65.07646071	     -1.30390135	      5.68232586	      0.01409063	      0.00577085	     -0.00593440	     65.07646071
      1.39120731	      0.00000000	     -0.00000000	      0.00000000	     -0.00000000	      0.96900000	     -0.00000000	     38.72944776	     -0.46682946	      1.04026989	      0.00156729	      0.01303650	     -0.00713114	     38.72944776	     -0.00000000	     -0.00000000	     -0.00000000	      0.00000000	     -0.00000000	     -0.00000000	     64.88591759	     -1.45534769	      5.66802160	      0.01427190	      0.00553967	     -0.00600878	     64.88591759
      1.39483628	      0.00000000	     -0.00000000	      0.00000000	     -0.00000000	      0.96900000	     -0.00000000	     38.96452917	     -0.47269501	      1.06107395	      0.00161952	      0.01305640	     -0.00715443	     38.96452917	     -0.00000000	     -0.00000000	     -0.00000000	      0.00000000	     -0.00000000	     -0.00000000	     64.66745604	     -1.79772762	      5.79884161	      0.01453701	      0.00546247	     -0.00692326	     64.66745604
      1.39755929	      0.00000000	     -0.00000000	      0.00000000	     -0.00000000	      0.96900000	     -0.00000000	     39.14037468	     -0.47791076	      1.07695482	      0.00165941	      0.01307125	     -0.00717414	     39.14037468	     -0.00000000	     -0.00000000	     -0.00000000	      0.00000000	     -0.00000000	     -0.00000000	     64.48519915	     -2.03861363	      5.86603642	      0.01475853	      0.00545296	     -0.00758271	     64.48519915
      1.40028230	      0.00000000	     -0.00000000	      0.00000000	     -0.00000000	      0.96900000	     -0.00000000	     39.31570251	     -0.48377827	      1.09298152	      0.00169986	      0.01308607	     -0.00719567	     39.31570251	     -0.00000000	     -0.00000000	     -0.00000000	      0.00000000	     -0.00000000	     -0.00000000	     64.28722338	     -2.24963375	      5.88234522	      0.01493236	      0.00540478	     -0.00814504	     64.28722338
      1.40372698	      0.00000000	     -0.00000000	      0.00000000	     -0.00000000	      0.96900000	     -0.00000000	     39.53668861	     -0.49177371	      1.11319310	      0.00175139	      0.01310435	     -0.00722406	     39.53668861	     -0.00000000	     -0.00000000	     -0.00000000	      0.00000000	     -0.00000000	     -0.00000000	     64.01425878	     -2.38264789	      5.85619767	      0.01495279	      0.00519854	     -0.00829925	     64.01425878
      1.40717167	      0.00000000	     -0.00000000	      0.00000000	     -0.00000000	      0.96900000	     -0.00000000	     39.75669111	     -0.50002456	      1.13333428	      0.00180277	      0.01312199	     -0.00725221	     39.75669111	      0.00000000	     -0.00000000	     -0.00000000	      0.00000000	     -0.00000000	      0.00000000	     63.71613934	     -2.37705762	      5.82785820	      0.01489250	      0.00506545	     -0.00792218	     63.71613934
      1.41061635	      0.00000000	     -0.00000000	      0.00000000	     -0.00000000	      0.96900000	     -0.00000000	     39.97562336	     -0.50811083	      1.15326271	      0.00185402	      0.01313932	     -0.00727853	     39.97562336	      0.00000000	     -0.00000000	     -0.00000000	      0.00000000	     -0.00000000	      0.00000000	     63.39286507	     -2.30574835	      5.74538614	      0.01484209	      0.00498776	     -0.00731362	     63.39286507
